# xmcd
#
# Track frame offsets:
#	150
#	6777
#	25793
#	48726
#	79841
#	89353
#	105871
#	130171
#	136273
#	154931
#	198394
#
# Disc length: 3570 seconds
#
# Revision: 1
# Processed by: cddbd v1.5.2PL0 Copyright (c) Steve Scherf et al.
# Submitted via: audiograbber 1.83.01
#
DISCID=840df00b
DTITLE=Carach Angren - Lammendam
DYEAR=2008
DGENRE=Black Metal
TTITLE0=Het spook van de Leiffartshof
TTITLE1=A strange presence near the woods
TTITLE2=Haunting echoes from the seventeenth century
TTITLE3=Phobic shadows and moonlit meadows
TTITLE4=Hexed melting flesh
TTITLE5=The carriage wheel number
TTITLE6=Corpse in a nebulous creek
TTITLE7=Invisible physic entity
TTITLE8=Heretic poltergeist phenomena
TTITLE9=La malédiction de la Dame Blanche
TTITLE10=Daten-CD
EXTD=
EXTT0=
EXTT1=
EXTT2=
EXTT3=
EXTT4=
EXTT5=
EXTT6=
EXTT7=
EXTT8=
EXTT9=
EXTT10=
PLAYORDER=
